<svg width="34" height="28" viewBox="0 0 34 28" fill="none" xmlns="http://www.w3.org/2000/svg">
<path d="M34 10.9332V20.523C33.9992 21.2164 33.7234 21.8812 33.2331 22.3715C32.7428 22.8618 32.078 23.1376 31.3846 23.1383H30.5128V26.6255C30.5127 26.7912 30.4654 26.9535 30.3765 27.0933C30.2875 27.2331 30.1606 27.3447 30.0106 27.415C29.8605 27.4853 29.6936 27.5114 29.5292 27.4902C29.3649 27.4691 29.2099 27.4016 29.0826 27.2956L24.0944 23.1383H15.6923C14.9989 23.1376 14.3341 22.8618 13.8438 22.3715C13.3535 21.8812 13.0777 21.2164 13.0769 20.523V19.6512H21.7949C22.9505 19.6498 24.0585 19.1901 24.8756 18.3729C25.6928 17.5558 26.1525 16.4478 26.1538 15.2922V8.31783H31.3846C32.078 8.31859 32.7428 8.59439 33.2331 9.0847C33.7234 9.57502 33.9992 10.2398 34 10.9332ZM21.7949 17.9076H9.99077L5.02049 23.705C4.90457 23.8401 4.75009 23.9364 4.57781 23.9811C4.40553 24.0258 4.22371 24.0166 4.05676 23.9549C3.88982 23.8932 3.74576 23.7819 3.64394 23.6359C3.54212 23.49 3.48741 23.3163 3.48718 23.1383V17.9076H2.61538C1.92198 17.9068 1.25718 17.631 0.766869 17.1407C0.276555 16.6504 0.000761495 15.9856 0 15.2922V3.08706C0.000761495 2.39365 0.276555 1.72886 0.766869 1.23855C1.25718 0.748234 1.92198 0.472441 2.61538 0.47168H21.7949C22.4883 0.472441 23.1531 0.748234 23.6434 1.23855C24.1337 1.72886 24.4095 2.39365 24.4103 3.08706V15.2922C24.4095 15.9856 24.1337 16.6504 23.6434 17.1407C23.1531 17.631 22.4883 17.9068 21.7949 17.9076ZM19.1795 10.9332C19.1795 10.702 19.0876 10.4803 18.9241 10.3168C18.7607 10.1533 18.5389 10.0614 18.3077 10.0614H6.10256C5.87135 10.0614 5.64961 10.1533 5.48611 10.3168C5.32262 10.4803 5.23077 10.702 5.23077 10.9332C5.23077 11.1644 5.32262 11.3862 5.48611 11.5497C5.64961 11.7132 5.87135 11.805 6.10256 11.805H18.3077C18.5389 11.805 18.7607 11.7132 18.9241 11.5497C19.0876 11.3862 19.1795 11.1644 19.1795 10.9332ZM19.1795 6.57424C19.1795 6.34303 19.0876 6.12128 18.9241 5.95779C18.7607 5.7943 18.5389 5.70245 18.3077 5.70245H6.10256C5.87135 5.70245 5.64961 5.7943 5.48611 5.95779C5.32262 6.12128 5.23077 6.34303 5.23077 6.57424C5.23077 6.80546 5.32262 7.0272 5.48611 7.1907C5.64961 7.35419 5.87135 7.44604 6.10256 7.44604H18.3077C18.5389 7.44604 18.7607 7.35419 18.9241 7.1907C19.0876 7.0272 19.1795 6.80546 19.1795 6.57424Z" fill="white"/>
</svg>
