<svg width="35" height="34" viewBox="0 0 35 34" fill="none" xmlns="http://www.w3.org/2000/svg">
<path d="M34.0013 16.9998C34.0013 26.3887 26.3901 33.9998 17.0013 33.9998C13.0609 33.9998 9.43369 32.6592 6.55078 30.4093L24.7833 12.1768C25.6535 13.5773 26.1551 15.2292 26.1551 16.9998C26.1551 21.1925 23.3363 24.7269 19.4905 25.8111C18.9167 25.0652 18.0151 24.5844 17.0013 24.5844C15.2679 24.5844 13.8628 25.9896 13.8628 27.7229C13.8628 29.4562 15.2679 30.8613 17.0013 30.8613C18.2989 30.8613 19.4126 30.0738 19.8905 28.9507C25.2853 27.6511 29.2936 22.7935 29.2936 16.9998C29.2936 14.3617 28.4612 11.9159 27.0465 9.91356L30.4107 6.54932C32.6607 9.43223 34.0013 13.0595 34.0013 16.9998Z" fill="#FFAF2E"/>
<path d="M6.95477 24.0862L3.59053 27.4505C1.34058 24.5676 0 20.9403 0 17C0 7.61116 7.61116 0 17 0C20.9403 0 24.5676 1.34058 27.4505 3.59053L9.218 21.823C8.34783 20.4225 7.84615 18.7708 7.84615 17C7.84615 12.8073 10.6649 9.27294 14.5108 8.18866C15.0846 8.93463 15.9861 9.41538 17 9.41538C18.7333 9.41538 20.1385 8.01024 20.1385 6.27692C20.1385 4.54359 18.7333 3.13845 17 3.13845C15.7024 3.13845 14.5887 3.92597 14.1108 5.04914C8.71598 6.34871 4.70768 11.2063 4.70768 17C4.70768 19.6379 5.54001 22.0838 6.95477 24.0862Z" fill="#F04148"/>
<circle cx="16.9991" cy="6.27693" r="1.30769" fill="#F04148"/>
<circle cx="16.9991" cy="27.7232" r="1.30769" fill="#FFAF2E"/>
</svg>
